# xmcd CD database file
#
# Track frame offsets:
#	150
#	13210
#	26607
#	41453
#	54069
#	68428
#	82543
#	95007
#	108660
#	123633
#	137013
#	149793
#	164485
#	178121
#	192320
#	204216
#	218754
#	233257
#	247994
#	259024
#
# Disc length: 3629 seconds
#
# Revision: 0
# Processed by: cddbd v1.5.2PL0 Copyright (c) Steve Scherf et al.
# Submitted via: CDex 1.51
#
DISCID=0d0e2b14
DTITLE=Bessie Smith - i ain't gonna play no second fiddle - Vol 5
DYEAR=2000
DGENRE=Blues
TTITLE0=You Don't Understand
TTITLE1=Don't Cry, Baby
TTITLE2=Keep It To Yourself
TTITLE3=New Orleans Hop Scop Blues
TTITLE4=See If I'll Care
TTITLE5=Baby, Have Pity On Me
TTITLE6=On Revival Day (A Rhythmic Spiritual)
TTITLE7=Moan Mourners
TTITLE8=Hustlin' Dan
TTITLE9=Black Mountain Blues
TTITLE10=In The House Blues
TTITLE11=Long Old Road
TTITLE12=Blue Blue
TTITLE13=Shipwreck Blues
TTITLE14=Need A Little Sugar In My Bowl
TTITLE15=Safety Mama
TTITLE16=Do Your Duty
TTITLE17=Gimme A Pigfoot And A Bottle Of Beer
TTITLE18=Take Me For A Buggy Ride
TTITLE19=I'm Down In The Dumps
EXTD=YEAR: 2000
EXTT0=
EXTT1=
EXTT2=
EXTT3=
EXTT4=
EXTT5=
EXTT6=
EXTT7=
EXTT8=
EXTT9=
EXTT10=
EXTT11=
EXTT12=
EXTT13=
EXTT14=
EXTT15=
EXTT16=
EXTT17=
EXTT18=
EXTT19=
PLAYORDER=
